# xmcd
#
# Track frame offsets:
# 150
# 15694
# 27541
# 43204
# 57897
# 77290
# 90212
# 105299
# 118946
# 134409
# 147259
# 161347
# 175993
# 189619
#
# Disc length: 2732 seconds
#
#
# Revision: 0
# Processed by: cddbd v1.5.2PL0 Copyright (c) Steve Scherf et al.
# Submitted via: FreeRIP 2.944 
#
DISCID=b10aaa0e
DTITLE=Diversos - Batidao Sertanejo
DYEAR=2009
DGENRE=Country
TTITLE0=Paga Pau
TTITLE1=Voce de Volta
TTITLE2=Pega Fogo Cabare
TTITLE3=Problema Meu
TTITLE4=Nossa Historia
TTITLE5=Pistoleira
TTITLE6=Nao vou tirar voce do coracao
TTITLE7=Cola em mim
TTITLE8=A chapa vai Esquentar
TTITLE9=Dou a vida por um beijo
TTITLE10=Aqui e o seu lugar
TTITLE11=Amar voce
TTITLE12=Tentacao Cruel
TTITLE13=Atenda o telefone
EXTD=
EXTT0=
EXTT1=
EXTT2=
EXTT3=
EXTT4=
EXTT5=
EXTT6=
EXTT7=
EXTT8=
EXTT9=
EXTT10=
EXTT11=
EXTT12=
EXTT13=
PLAYORDER=
